<?xml version="1.0" standalone="no"?>
<!DOCTYPE svg PUBLIC "-//W3C//DTD SVG 20010904//EN"
 "http://www.w3.org/TR/2001/REC-SVG-20010904/DTD/svg10.dtd">
<svg version="1.0" xmlns="http://www.w3.org/2000/svg"
 width="400.000000pt" height="400.000000pt" viewBox="0 0 400.000000 400.000000"
 preserveAspectRatio="xMidYMid meet">
<metadata>
Created by potrace 1.11, written by Peter Selinger 2001-2013
</metadata>
<g transform="translate(0.000000,400.000000) scale(0.100000,-0.100000)"
fill="#000000" stroke="none">
<path d="M0 2000 l0 -2000 2000 0 2000 0 0 2000 0 2000 -2000 0 -2000 0 0
-2000z m2840 875 l0 -445 -67 46 c-138 94 -246 128 -418 128 -134 1 -206 -14
-311 -65 -177 -84 -323 -266 -368 -459 -20 -84 -20 -256 0 -340 49 -211 205
-393 412 -480 l63 -27 -482 -279 c-266 -153 -489 -280 -496 -282 -11 -3 -13
143 -11 839 l3 843 835 483 c459 266 836 483 838 483 1 0 2 -200 2 -445z
m-357 -651 c54 -19 113 -68 143 -120 l26 -44 94 0 94 0 0 -155 0 -155 -95 0
c-94 0 -95 0 -109 -29 -8 -15 -38 -49 -65 -74 -121 -108 -322 -99 -432 20 -57
62 -81 123 -87 215 -15 262 191 426 431 342z"/>
</g>
</svg>
